<svg xmlns="http://www.w3.org/2000/svg" xmlns:xlink="http://www.w3.org/1999/xlink" width="96" height="190.207" viewBox="0 0 96 190.207"><defs><style>.a{opacity:0.5;fill:url(#a);}</style><linearGradient id="a" x1="0.5" y1="0.994" x2="0.5" y2="-0.004" gradientUnits="objectBoundingBox"><stop offset="0" stop-color="#fff"/><stop offset="0.1" stop-color="#f9fdff"/><stop offset="0.224" stop-color="#eaf8ff"/><stop offset="0.36" stop-color="#d1efff"/><stop offset="0.505" stop-color="#ade3ff"/><stop offset="0.658" stop-color="#80d4ff"/><stop offset="0.817" stop-color="#49c2ff"/><stop offset="0.978" stop-color="#09adff"/><stop offset="1" stop-color="#0af"/></linearGradient></defs><path class="a" d="M88,203.437a9.99,9.99,0,0,0-16,0,9.99,9.99,0,0,0-16,0,9.99,9.99,0,0,0-16,0,9.99,9.99,0,0,0-16,0,9.99,9.99,0,0,0-16,0,9.991,9.991,0,0,0-8-4.007V250.4a8.4,8.4,0,0,0,8-5.839,8.4,8.4,0,0,0,16,0,8.4,8.4,0,0,0,16,0,8.4,8.4,0,0,0,16,0,8.4,8.4,0,0,0,16,0,8.4,8.4,0,0,0,16,0,8.4,8.4,0,0,0,8,5.839V199.43A9.991,9.991,0,0,0,88,203.437ZM8,239.442A8.422,8.422,0,0,0,3.344,234.3,9.234,9.234,0,0,0,8,230.275a9.234,9.234,0,0,0,4.656,4.024A8.422,8.422,0,0,0,8,239.442Zm16,0a8.422,8.422,0,0,0-4.656-5.143A9.237,9.237,0,0,0,24,230.276a9.237,9.237,0,0,0,4.656,4.023A8.419,8.419,0,0,0,24,239.442Zm16,0a8.423,8.423,0,0,0-4.655-5.143A9.235,9.235,0,0,0,40,230.276a9.237,9.237,0,0,0,4.656,4.023A8.422,8.422,0,0,0,40,239.442Zm16,0a8.419,8.419,0,0,0-4.656-5.143A9.237,9.237,0,0,0,56,230.276a9.237,9.237,0,0,0,4.656,4.023A8.422,8.422,0,0,0,56,239.442Zm16,0a8.419,8.419,0,0,0-4.656-5.143A9.237,9.237,0,0,0,72,230.276a9.237,9.237,0,0,0,4.656,4.023A8.422,8.422,0,0,0,72,239.442Zm16,0a8.423,8.423,0,0,0-4.655-5.143A9.236,9.236,0,0,0,88,230.275a9.23,9.23,0,0,0,4.656,4.024A8.419,8.419,0,0,0,88,239.442Zm8,26.433a7.593,7.593,0,1,1,0-15.186Zm0,15.47a6.785,6.785,0,0,1,0-13.57Zm0,15.47a5.977,5.977,0,0,1,0-11.954Zm0,15.471a5.17,5.17,0,0,1,0-10.339Zm0,15.47a4.362,4.362,0,0,1,0-8.723Zm0,15.47a3.554,3.554,0,0,1,0-7.107Zm0,15.47a2.745,2.745,0,0,1,0-5.49Zm0,15.471a1.938,1.938,0,0,1,0-3.875Zm0,15.47a1.13,1.13,0,0,1,0-2.259ZM87.593,258.282A7.593,7.593,0,1,1,80,250.689,7.593,7.593,0,0,1,87.593,258.282Zm-.808,16.278A6.785,6.785,0,1,1,80,267.775,6.785,6.785,0,0,1,86.785,274.56Zm-.808,16.278A5.977,5.977,0,1,1,80,284.861,5.977,5.977,0,0,1,85.977,290.838Zm-.808,16.278A5.169,5.169,0,1,1,80,301.947,5.17,5.17,0,0,1,85.169,307.116Zm-.808,16.279A4.361,4.361,0,1,1,80,319.033,4.361,4.361,0,0,1,84.361,323.395Zm-.808,16.278A3.553,3.553,0,1,1,80,336.119,3.553,3.553,0,0,1,83.553,339.673Zm-.808,16.278A2.745,2.745,0,1,1,80,353.206,2.745,2.745,0,0,1,82.745,355.951Zm-.808,16.278A1.937,1.937,0,1,1,80,370.292,1.938,1.938,0,0,1,81.937,372.229Zm-.807,16.278A1.13,1.13,0,1,1,80,387.378,1.13,1.13,0,0,1,81.13,388.507ZM71.593,258.282A7.593,7.593,0,1,1,64,250.689,7.593,7.593,0,0,1,71.593,258.282Zm-.808,16.278A6.785,6.785,0,1,1,64,267.775,6.785,6.785,0,0,1,70.785,274.56Zm-.808,16.278A5.977,5.977,0,1,1,64,284.861,5.977,5.977,0,0,1,69.977,290.838Zm-.808,16.278A5.169,5.169,0,1,1,64,301.947,5.17,5.17,0,0,1,69.169,307.116Zm-.808,16.279A4.361,4.361,0,1,1,64,319.033,4.361,4.361,0,0,1,68.361,323.395Zm-.808,16.278A3.553,3.553,0,1,1,64,336.119,3.553,3.553,0,0,1,67.553,339.673Zm-.808,16.278A2.745,2.745,0,1,1,64,353.206,2.745,2.745,0,0,1,66.745,355.951Zm-.807,16.278A1.938,1.938,0,1,1,64,370.292,1.938,1.938,0,0,1,65.938,372.229Zm-.808,16.278A1.13,1.13,0,1,1,64,387.378,1.13,1.13,0,0,1,65.13,388.507ZM55.593,258.282A7.593,7.593,0,1,1,48,250.689,7.593,7.593,0,0,1,55.593,258.282Zm-.808,16.278A6.785,6.785,0,1,1,48,267.775,6.785,6.785,0,0,1,54.785,274.56Zm-.808,16.278A5.977,5.977,0,1,1,48,284.861,5.977,5.977,0,0,1,53.977,290.838Zm-.808,16.278A5.169,5.169,0,1,1,48,301.947,5.17,5.17,0,0,1,53.169,307.116Zm-.808,16.279A4.361,4.361,0,1,1,48,319.033,4.361,4.361,0,0,1,52.361,323.395Zm-.808,16.278A3.553,3.553,0,1,1,48,336.119,3.553,3.553,0,0,1,51.553,339.673Zm-.808,16.278A2.745,2.745,0,1,1,48,353.206,2.745,2.745,0,0,1,50.745,355.951Zm-.808,16.278A1.937,1.937,0,1,1,48,370.292,1.938,1.938,0,0,1,49.937,372.229Zm-.807,16.278A1.13,1.13,0,1,1,48,387.378,1.13,1.13,0,0,1,49.13,388.507ZM39.593,258.282A7.593,7.593,0,1,1,32,250.689,7.593,7.593,0,0,1,39.593,258.282Zm-.808,16.278A6.785,6.785,0,1,1,32,267.775,6.785,6.785,0,0,1,38.785,274.56Zm-.808,16.278A5.977,5.977,0,1,1,32,284.861,5.977,5.977,0,0,1,37.977,290.838Zm-.808,16.278A5.169,5.169,0,1,1,32,301.947,5.17,5.17,0,0,1,37.169,307.116Zm-.808,16.279A4.361,4.361,0,1,1,32,319.033,4.361,4.361,0,0,1,36.361,323.395Zm-.808,16.278A3.553,3.553,0,1,1,32,336.119,3.553,3.553,0,0,1,35.553,339.673Zm-.808,16.278A2.745,2.745,0,1,1,32,353.206,2.745,2.745,0,0,1,34.745,355.951Zm-.808,16.278A1.937,1.937,0,1,1,32,370.292,1.938,1.938,0,0,1,33.937,372.229Zm-.807,16.278A1.13,1.13,0,1,1,32,387.378,1.13,1.13,0,0,1,33.13,388.507ZM23.593,258.282A7.593,7.593,0,1,1,16,250.689,7.593,7.593,0,0,1,23.593,258.282Zm-.808,16.278A6.785,6.785,0,1,1,16,267.775,6.785,6.785,0,0,1,22.785,274.56Zm-.808,16.278A5.977,5.977,0,1,1,16,284.861,5.977,5.977,0,0,1,21.977,290.838Zm-.808,16.278A5.169,5.169,0,1,1,16,301.947,5.17,5.17,0,0,1,21.169,307.116Zm-.808,16.279A4.361,4.361,0,1,1,16,319.033,4.361,4.361,0,0,1,20.361,323.395Zm-.808,16.278A3.553,3.553,0,1,1,16,336.119,3.553,3.553,0,0,1,19.553,339.673Zm-.808,16.278A2.745,2.745,0,1,1,16,353.206,2.745,2.745,0,0,1,18.745,355.951Zm-.808,16.278A1.937,1.937,0,1,1,16,370.292,1.938,1.938,0,0,1,17.937,372.229Zm-.807,16.278A1.13,1.13,0,1,1,16,387.378,1.13,1.13,0,0,1,17.13,388.507ZM0,250.689a7.592,7.592,0,0,1,7.593,7.593A7.593,7.593,0,0,1,0,265.875Zm0,17.086a6.785,6.785,0,0,1,6.785,6.785A6.785,6.785,0,0,1,0,281.345m0,3.516a5.977,5.977,0,0,1,5.977,5.977A5.977,5.977,0,0,1,0,296.815Zm0,17.086a5.169,5.169,0,0,1,5.169,5.169A5.17,5.17,0,0,1,0,312.286Zm0,17.086a4.361,4.361,0,0,1,4.361,4.362A4.361,4.361,0,0,1,0,327.756Zm0,17.086a3.554,3.554,0,0,1,3.553,3.554A3.553,3.553,0,0,1,0,343.226Zm0,17.087a2.745,2.745,0,0,1,2.745,2.745A2.745,2.745,0,0,1,0,358.7Zm0,17.086a1.937,1.937,0,0,1,1.937,1.937A1.938,1.938,0,0,1,0,374.167Zm0,17.086a1.129,1.129,0,0,1,1.13,1.129A1.13,1.13,0,0,1,0,389.637Z" transform="translate(0 -199.43)"/></svg>