<svg xmlns="http://www.w3.org/2000/svg" width="47.054" height="41.811" viewBox="0 0 47.054 41.811"><defs><style>.a,.b{fill:#fff;}.b,.c{stroke:#ff0084;stroke-miterlimit:10;stroke-width:1.465px;}.c{fill:none;stroke-linecap:round;}</style></defs><g transform="translate(-1316.156 -1065.107)"><path class="a" d="M1327.2,1098.527s.542,5.8,2.731,7.815,2.981-1.619,2.988-5.259"/><path class="a" d="M1320.626,1081.5s-4.717,5.1-4.46,10.634c.19,4.064,4.453-2.681,4.453-2.681"/><path class="a" d="M1352.169,1098.527s-.542,5.8-2.731,7.815-2.981-1.619-2.989-5.259"/><path class="a" d="M1358.746,1081.5s4.717,5.09,4.453,10.634c-.191,4.065-4.453-2.681-4.453-2.681"/><path class="b" d="M1358.746,1076.732a4.4,4.4,0,0,0-2.607-4.021l-14.274-6.386a5.361,5.361,0,0,0-4.351,0l-14.281,6.386a4.4,4.4,0,0,0-2.607,4.021v15.995a4.4,4.4,0,0,0,2.607,4.021l14.281,6.386a5.361,5.361,0,0,0,4.351,0l14.281-6.386a4.4,4.4,0,0,0,2.607-4.021v-15.995Z"/><path class="c" d="M1345.691,1071.161l-12.769,5.71"/><path class="c" d="M1323.464,1075.541l14.05,6.281a5.361,5.361,0,0,0,4.351,0l13.918-6.222"/><line class="c" y2="15.912" transform="translate(1339.69 1085.059)"/></g></svg>